<svg xmlns="http://www.w3.org/2000/svg" width="2083.89" height="406.87" viewBox="0 0 2083.89 406.87">
  <g id="icons">
    <path id="O" d="M1952.57,109.17c71.38-.07,130.14,58.25,131.3,128.18C2085.08,310.22,2025,370,1955.5,371.21c-75.73,1.31-134-61.12-133.59-131.42C1822.29,167.39,1880.22,109.24,1952.57,109.17Zm.07,216c47.25,0,85.3-37.65,85.33-84.41,0-47.84-38-85.91-85.65-85.75-47.28.15-85.56,38.32-85.35,85.08C1867.19,287.79,1904.83,325.17,1952.64,325.17Z" transform="translate(0 -0.16)" style="fill: #fff;fill-rule: evenodd"/>
    <path id="T" d="M1641.3.16h45.83V6.09q0,73.73,0,147.47c0,7.82.63,8.44,8.63,8.44h99.11v45.83h-99.94c-6.8,0-7.89,1-7.77,7.85.26,15.11-1.1,30.27,2.88,45.22,9.83,37,43.4,63.07,81.6,63.1h23.19v45.82c-9.45,0-18.9.36-28.31-.06-58.1-2.57-108.24-43.94-121.53-100.65a133.09,133.09,0,0,1-3.54-29.65c-.28-77.82-.16-155.63-.16-233.45Z" transform="translate(0 -0.16)" style="fill: #fff;fill-rule: evenodd"/>
    <path id="N" d="M1399.63,369.94h-45.36c-.11-1.31-.3-2.42-.3-3.54,0-44-.84-88,.4-132,1.41-49.8,25.56-87.1,69.09-110.46C1475.13,96.24,1535,105.45,1577,146.5c25.15,24.58,38.46,54.84,38.57,90.34.14,42.33,0,84.66,0,127v6.11H1570V241.07c0-48.51-36-85.54-84.6-86.9-43.67-1.23-84.16,35.74-85.18,79.35-1,43.14-.44,86.31-.55,129.47C1399.63,365.14,1399.63,367.29,1399.63,369.94Z" transform="translate(0 -0.16)" style="fill: #fff;fill-rule: evenodd"/>
    <path id="A" d="M1328.69,370.67c-26,0-51.28.08-76.6,0-22.14-.09-44.42,1.09-66.4-.93-48-4.41-83.21-29.53-105-72.15a127.86,127.86,0,0,1,23.74-149.5c29.48-29.29,65.44-42.57,107.2-38.41a129.73,129.73,0,0,1,113.49,99,132.94,132.94,0,0,1,3.56,29.15c.38,43,.16,86,.16,128.93C1328.88,367.9,1328.77,369,1328.69,370.67ZM1234,324.06l6.59-.06c13.83,0,23.19,0,37,0,6.56,0,7.51-1,7.51-7.55,0-26.16.07-52.31-.05-78.47a70.15,70.15,0,0,0-1.29-13.9c-7.06-33.93-26.87-57.25-60.24-66.7-34.28-9.71-64.62-.7-88.08,26.28-21.7,25-26.38,54.24-15,85.09,11.47,31,34.59,49.58,67.27,54C1203.62,324.85,1217.87,324.06,1234,324.06Z" transform="translate(0 -0.16)" style="fill: #fff;fill-rule: evenodd"/>
    <path id="V" d="M957.13,364.69,823.86,107.3c1.69-.19,2.88-.45,4.08-.45,14.33,0,32.7.07,47-.09l2.05,3.72q37.4,72.56,75.12,145c1,1.91,3.43,4.33,5.11,4.27s4-2.53,5-4.48c23.21-44.77,46.63-89.43,69.11-134.57,5.65-10.16,4.24-8.21,7.83-13.89,11.92,0,38.95.12,52,.07Z" transform="translate(0 -0.16)" style="fill: #fff;fill-rule: evenodd"/>
    <path id="L" d="M746.94.23H792V369.49H746.94Z" transform="translate(0 -0.16)" style="fill: #fff;fill-rule: evenodd"/>
    <path id="E" d="M669.59,300.92a83.14,83.14,0,0,1-91,17.8c-8.44-3.5-9-6-2.65-12.32L719.22,163.62c-5.72-5.61-10.5-10.2-15.45-15.15-29.38-29.37-64.85-42.19-106.13-38.59-70,6.12-129.75,70.38-115.82,152.4C492,322.36,538.45,364.76,599,370.23c49.7,4.49,88.19-16.85,118.93-53.6l-32.17-32.17C680.56,289.79,675.16,295.44,669.59,300.92ZM532.4,274.05A80.38,80.38,0,0,1,525,239.19c.09-59.85,60.75-100.67,116.25-78.23,1.08.44,2.15.89,3.2,1.4,5.66,2.73,6.21,5.39,1.81,9.76Q594,224,541.63,275.88C537.83,279.64,534.63,279,532.4,274.05Z" transform="translate(0 -0.16)" style="fill: #fff;fill-rule: evenodd"/>
  </g>
  <g id="icon">
    <path d="M234.74,84.95c-9.51,9.4-18.48,18.11-27.36,27.05-4.77,4.55-10.81,10.38-10.81,10.38L183,120.62c-65-9.75-128.28,38.2-137,103.76-8.87,66.73,34.4,126.21,100.61,138.3s132.09-35.3,141.7-102a128,128,0,0,0-.68-41.77,13.79,13.79,0,0,0-.41-2.77c11.81-12.18,25-25.5,37.11-37.82C348.53,236,337.85,321,269.37,373.12c-65.1,49.53-157.88,44.24-216.89-12.22C-7.9,303.13-17.4,211,30.32,142.9,79.25,73.05,166.78,55,234.74,84.95Z" transform="translate(0 -0.16)" style="fill: #70bf44;fill-rule: evenodd"/>
    <path d="M165.35,277.83,128.77,240.6c.6-.69,1.49-1.82,2.51-2.84q77-77.38,154-154.78c5.41-5.45,11.44-7.67,18.5-4.86,11.73,4.68,20,13,23.7,25.29a15.35,15.35,0,0,1-4.12,16.07Q245.06,198,166.79,276.65C166.44,277,166,277.28,165.35,277.83Z" transform="translate(0 -0.16)" style="fill: #70bf44;fill-rule: evenodd"/>
  </g>
</svg>
