<?xml version="1.0" encoding="utf-8"?>
<!-- Generator: Adobe Illustrator 24.0.3, SVG Export Plug-In . SVG Version: 6.00 Build 0)  -->
<svg version="1.1" id="Layer_1" xmlns="http://www.w3.org/2000/svg" xmlns:xlink="http://www.w3.org/1999/xlink" x="0px" y="0px"
	 viewBox="0 0 746 573" style="enable-background:new 0 0 746 573;" xml:space="preserve">
<style type="text/css">
	.st0{opacity:0.2;}
	.st1{fill:#C7E1F9;}
	.st2{fill:none;stroke:#C7E1F9;stroke-width:3.049;stroke-linecap:round;stroke-miterlimit:10;}
	.st3{fill:url(#SVGID_1_);}
	.st4{fill:#FFFFFF;}
	.st5{fill:url(#SVGID_2_);}
	.st6{fill:url(#SVGID_3_);}
	.st7{fill:url(#SVGID_4_);}
	.st8{fill:url(#SVGID_5_);}
	.st9{fill:url(#SVGID_6_);}
	.st10{fill:url(#SVGID_7_);}
	.st11{fill:url(#SVGID_8_);}
</style>
<title>logo-hero</title>
<g>
	<g class="st0">
		<path class="st1" d="M663,342.9C615.1,405.4,555.3,464,504.7,501.1c-52.3,37.6-98.5,49.1-157,32.4
			c-57.6-16.7-120.5-51.7-177.1-83.2c-56.2-33.3-104.7-61.8-126-106.8C24,299.8,31,237.6,81.3,171.5
			c49-64.6,147.6-129.5,280.4-130.8c131.7-3.3,254.6,56.8,306.3,117C723.2,219.6,710,280.8,663,342.9z"/>
	</g>
	<g class="st0">
		<path class="st2" d="M126.5,146.9c41.9-41.9,99.8-78.5,174-97.2c79.4-21.4,161.5-17.9,227.8-0.9"/>
		<path class="st2" d="M136.7,465.6c-28.4-11.9-52.4-26.3-69.8-47.5c-30.7-37.6-39.2-99.6-6.5-175.6C69.8,221,81.7,200.7,96,182"/>
		<path class="st2" d="M626.6,91.3c68.8,47.1,71,109.6,40.6,180.9c-31.2,72-74.9,142.9-114.9,190.8c-41.5,48.8-83.5,70.8-144.5,68.4
			c-60-2.7-129.7-21.9-192.4-39.2"/>
	</g>
</g>
<g>
	
		<linearGradient id="SVGID_1_" gradientUnits="userSpaceOnUse" x1="33.8067" y1="-250.4937" x2="166.6967" y2="-117.6028" gradientTransform="matrix(1 0 0 1 0 484)">
		<stop  offset="1.000000e-03" style="stop-color:#FF962D"/>
		<stop  offset="1" style="stop-color:#FC7638"/>
	</linearGradient>
	<path class="st3" d="M181.6,299.7c0,65.3-16.3,81.6-81.6,81.6S18.4,365,18.4,299.7s16.3-81.6,81.6-81.6S181.6,234.4,181.6,299.7z"
		/>
	<path class="st4" d="M110.8,280.8H89.1c-1.6,3.7-4.5,6.6-8.1,8.1v21.6c3.7,1.6,6.6,4.5,8.1,8.1h21.6c1.6-3.7,4.5-6.6,8.1-8.1v-21.6
		C115.2,287.3,112.3,284.4,110.8,280.8z M140.1,324.6c0,8.5-6.9,15.3-15.3,15.3c-6.1,0-11.7-3.7-14.1-9.3H89.1
		c-3.3,7.8-12.3,11.4-20.1,8.1s-11.4-12.3-8.1-20.1c1.6-3.7,4.5-6.6,8.1-8.1v-21.6c-7.8-3.3-11.4-12.3-8.1-20.1
		c3.3-7.8,12.3-11.4,20.1-8.1c3.7,1.6,6.6,4.5,8.1,8.1h21.6c3.3-7.8,12.3-11.4,20.1-8.1s11.4,12.3,8.1,20.1
		c-1.6,3.7-4.5,6.6-8.2,8.1v21.6C136.5,312.9,140.1,318.4,140.1,324.6L140.1,324.6z"/>
</g>
<g>
	
		<linearGradient id="SVGID_2_" gradientUnits="userSpaceOnUse" x1="570.5259" y1="-319.5428" x2="710.3599" y2="-179.7089" gradientTransform="matrix(1 0 0 1 0 484)">
		<stop  offset="0" style="stop-color:#A76EBE"/>
		<stop  offset="1" style="stop-color:#875E96"/>
	</linearGradient>
	<path class="st5" d="M719.9,232.4c0,65.2-16.3,81.5-81.5,81.5S557,297.5,557,232.4s16.3-81.5,81.5-81.5S719.9,167.2,719.9,232.4z"
		/>
	<path class="st4" d="M676.2,218.1l-42,42c-3.7,3.7-9.7,3.7-13.4,0L600.7,240c-3.7-3.7-3.6-9.7,0.1-13.4c3.7-3.6,9.6-3.6,13.3,0
		l13.4,13.4l35.3-35.3c3.7-3.7,9.7-3.6,13.4,0.1C679.9,208.5,679.9,214.4,676.2,218.1L676.2,218.1z"/>
</g>
<g>
	
		<linearGradient id="SVGID_3_" gradientUnits="userSpaceOnUse" x1="159.3031" y1="-149.8781" x2="289.8781" y2="-19.3031" gradientTransform="matrix(1 0 0 1 0 484)">
		<stop  offset="0" style="stop-color:#43B39C"/>
		<stop  offset="1" style="stop-color:#46948D"/>
	</linearGradient>
	<path class="st6" d="M306.2,399.4c0,65.3-16.3,81.6-81.6,81.6S143,464.7,143,399.4s16.3-81.6,81.6-81.6S306.2,334.2,306.2,399.4z"
		/>
	<g>
		<path class="st4" d="M182.2,408.8c-1.5,1.5-1.5,3.9,0,5.4l5.3,5.3c0.5,0.5,1.4,0.6,2,0.2c4.3-2.6,10-2,13.7,1.7
			c3.7,3.7,4.3,9.4,1.7,13.7c-0.4,0.7-0.4,1.5,0.2,2l5.3,5.3c1.5,1.5,3.9,1.5,5.4,0l15.1-15.1c0.5-0.5,0.5-1.2,0-1.7L199,393.7
			c-0.5-0.5-1.2-0.5-1.7,0L182.2,408.8z M266,386.9l-5.3-5.3c-0.5-0.5-1.4-0.6-2-0.2c-4.3,2.5-9.9,1.9-13.6-1.8
			c-3.7-3.7-4.3-9.3-1.8-13.6c0.4-0.7,0.3-1.5-0.2-2l-5.3-5.3c-1.5-1.5-3.9-1.5-5.4,0l-27.2,27.2c-0.5,0.5-0.5,1.2,0,1.7l31.9,31.9
			c0.5,0.5,1.2,0.5,1.7,0l27.2-27.2C267.5,390.8,267.5,388.3,266,386.9z"/>
	</g>
</g>
<g>
	
		<linearGradient id="SVGID_4_" gradientUnits="userSpaceOnUse" x1="423.2906" y1="-392.4906" x2="553.6906" y2="-262.0906" gradientTransform="matrix(1 0 0 1 0 484)">
		<stop  offset="0" style="stop-color:#42A5F5"/>
		<stop  offset="1" style="stop-color:#66BB6A"/>
	</linearGradient>
	<path class="st7" d="M570,156.7c0,65.2-16.3,81.5-81.5,81.5S407,221.9,407,156.7s16.3-81.5,81.5-81.5S570,91.6,570,156.7z"/>
	<path class="st4" d="M520.4,195.7c0,1.5-1.2,2.7-2.7,2.8l0,0l-16-0.1c-1.5,0-2.7-1.2-2.8-2.7l0,0c0,0,0-1.9,0-14.7
		c0-8.6-4.4-15.8-10.5-21.6c-6,5.8-10.5,13-10.5,21.6c0,12.8,0,14.7,0,14.7c0,1.5-1.3,2.7-2.8,2.7l0,0l-16,0.1
		c-1.5,0-2.7-1.3-2.7-2.8l0,0c0,0-2-52.8-0.2-54.4l0,0l29.3-25.3c1.6-1.4,4-1.4,5.6,0l29.3,25.3l0,0
		C522.4,143.1,520.4,195.7,520.4,195.7z"/>
</g>
<g>
	
		<linearGradient id="SVGID_5_" gradientUnits="userSpaceOnUse" x1="277.2" y1="-0.9" x2="440.2" y2="-0.9" gradientTransform="matrix(1 0 0 1 0 484)">
		<stop  offset="0" style="stop-color:#F5C426"/>
		<stop  offset="1" style="stop-color:#F2B327"/>
	</linearGradient>
	<path class="st8" d="M440.2,483.1c0,65.2-16.3,81.5-81.5,81.5s-81.5-16.3-81.5-81.5s16.3-81.5,81.5-81.5S440.2,417.9,440.2,483.1z"
		/>
	<path class="st4" d="M361.1,513.9c-1.4,1-3.4,1-4.9,0c-10.3-7.3-49-36.8-26.8-55.9c7.6-6.6,19.2-5.4,26.3,1.7l2.9,2.9l2.9-2.9
		c7.1-7.1,18.7-8.2,26.3-1.7C410.1,477.1,371.4,506.7,361.1,513.9z"/>
</g>
<g>
	
		<linearGradient id="SVGID_6_" gradientUnits="userSpaceOnUse" x1="161.1437" y1="-439.7562" x2="291.875" y2="-309.025" gradientTransform="matrix(1 0 0 1 0 484)">
		<stop  offset="0" style="stop-color:#6BB23D"/>
		<stop  offset="1" style="stop-color:#659630"/>
	</linearGradient>
	<path class="st9" d="M226.5,27.9c-65.3,0-81.7,16.3-81.7,81.7s16.3,81.7,81.7,81.7s81.7-16.3,81.7-81.7S291.9,27.9,226.5,27.9z"/>
	<g>
		<circle class="st4" cx="189.4" cy="81.6" r="8.7"/>
		<circle class="st4" cx="189.4" cy="109.7" r="8.7"/>
		<circle class="st4" cx="189.4" cy="137.9" r="8.7"/>
		<path class="st4" d="M267.6,85.4c0,2.2-1.8,4-4,4l0,0h-52.2c-2.2,0-4-1.8-4-4l0,0v-7.7c0-2.2,1.8-4,4-4h52.2c2.2,0,4,1.8,4,4l0,0
			V85.4z"/>
		<path class="st4" d="M211.4,101.9h52.2c2.2,0,4,1.8,4,4l0,0v7.7c0,2.2-1.8,4-4,4h-52.2c-2.2,0-4-1.8-4-4v-7.7
			C207.5,103.7,209.2,101.9,211.4,101.9L211.4,101.9z"/>
		<path class="st4" d="M211.4,130.1h52.2c2.2,0,4,1.8,4,4l0,0v7.7c0,2.2-1.8,4-4,4h-52.2c-2.2,0-4-1.8-4-4V134
			C207.5,131.8,209.2,130.1,211.4,130.1L211.4,130.1z"/>
	</g>
</g>
<g>
	
		<linearGradient id="SVGID_7_" gradientUnits="userSpaceOnUse" x1="292.5" y1="-336" x2="422.9" y2="-205.6" gradientTransform="matrix(1 0 0 1 0 484)">
		<stop  offset="0" style="stop-color:#32A0F0"/>
		<stop  offset="0.993" style="stop-color:#3F75E5"/>
	</linearGradient>
	<path class="st10" d="M439.2,213.2c0,65.2-16.3,81.5-81.5,81.5s-81.5-16.3-81.5-81.5s16.3-81.5,81.5-81.5S439.2,148,439.2,213.2z"
		/>
	<path class="st4" d="M345.3,180.5c8.5,0,15.4,6.9,15.4,15.4s-6.9,15.4-15.4,15.4s-15.4-6.9-15.4-15.4l0,0
		C330,187.4,336.9,180.5,345.3,180.5z"/>
	<path class="st4" d="M364.3,245.4h-38.1c-2.4,0-4.3-1.9-4.3-4.3v-9.7c0-7.7,6.3-14,14-14h18.7c7.7,0,14,6.3,14,14v9.7
		C368.6,243.5,366.7,245.4,364.3,245.4z"/>
	<circle class="st4" cx="380.6" cy="201.2" r="11.5"/>
	<path class="st4" d="M392.3,236.1h-14.8c-2.4,0-4.3-1.9-4.3-4.3v-0.4c0-2.5-0.5-5-1.5-7.3c-0.1-0.4-0.3-0.7-0.5-1.1
		c-0.1-0.3-0.3-0.6-0.5-0.8c-0.2-0.4-0.4-0.8-0.7-1.2c1.6-2.2,4.2-3.6,6.9-3.6h11.2c4.6,0,8.4,3.8,8.4,8.4v6
		C396.6,234.1,394.7,236.1,392.3,236.1z"/>
</g>
<g>
	<g>
		
			<linearGradient id="SVGID_8_" gradientUnits="userSpaceOnUse" x1="425.0812" y1="226.9812" x2="555.4813" y2="96.5812" gradientTransform="matrix(1 0 0 -1 0 574)">
			<stop  offset="0" style="stop-color:#F25437"/>
			<stop  offset="1" style="stop-color:#CD4E39"/>
		</linearGradient>
		<path class="st11" d="M490.3,330.7c-65.2,0-81.5,16.3-81.5,81.5s16.3,81.5,81.5,81.5s81.5-16.3,81.5-81.5
			C571.7,347,555.4,330.7,490.3,330.7z"/>
	</g>
	<path class="st4" d="M524.4,382.9H517v-5.7c0-2.5-2-4.5-4.5-4.5h-2.2c-2.5,0-4.5,2-4.5,4.5v5.7h-31.1v-5.7c0-2.5-2-4.5-4.5-4.5H468
		c-2.5,0-4.5,2-4.5,4.5v5.7h-7.4c-2.6,0-4.8,2.1-4.8,4.8v57.9c0,2.6,2.1,4.8,4.8,4.8h68.3c2.6,0,4.8-2.1,4.8-4.8v-57.9
		C529.2,385,527,382.9,524.4,382.9z M517,437.7h-53.5V404H517V437.7z"/>
</g>
</svg>
