<svg width="1019" height="290" viewBox="0 0 1019 290" fill="none" xmlns="http://www.w3.org/2000/svg">
<g clip-path="url(#clip0_1893_600)">
<path d="M139.75 147.09C164.19 137.12 182.34 115.52 184.59 90.1799L184.84 84.5799C184.84 50.1999 167.41 19.7999 140.25 -0.470093C113.09 19.7999 94.67 50.3799 94.67 84.7599L94.92 90.3599C97.17 115.7 115.32 137.12 139.76 147.08L139.75 147.09Z" fill="white"/>
<path d="M128.36 187.05C127.01 181.74 124.85 177.06 122.51 172.22C117.14 161.18 109.32 151.55 99.76 144.07C85.72 132.84 67.47 126.6 49.53 126.6H0.390015C0.480015 132.81 0.390015 139.02 0.390015 145.22C0.910015 156.11 3.59001 166.81 8.34001 176.63C13.71 187.67 21.53 197.3 31.09 204.81C44.92 215.87 62.61 222.91 80.39 222.91H129.38C129.38 209.52 130 193.52 128.36 187.05Z" fill="white"/>
<path d="M154.94 172.22C152.6 177.07 150.44 181.75 149.09 187.05C147.8 192.13 147.9 203.07 148.01 214.01C148.04 217.02 148.07 220.03 148.07 222.91H147.95V239.94L145.9 290.54H155.12C155.23 288.92 155.34 287.27 155.45 285.61C156.38 271.49 157.39 256.06 159.22 243.41C161.27 229.27 176.77 223.16 187.91 222.92H197.1C214.9 222.92 232.61 215.88 246.45 204.82C256.02 197.3 263.84 187.68 269.22 176.64C273.97 166.82 276.65 156.12 277.17 145.23C277.17 143.16 277.17 141.09 277.15 139.02C277.13 134.88 277.11 130.74 277.17 126.6H227.99C210.04 126.6 191.77 132.84 177.71 144.07C168.14 151.55 160.32 161.18 154.94 172.22Z" fill="white"/>
<path d="M741.87 226.7H714.48V163.33C714.21 151.57 708.9 144.61 699.06 142.21C688.96 139.8 677.79 144.08 674.06 153.71C670.61 162.8 668.74 172.96 668.21 182.59C667.15 197.03 667.94 211.47 667.94 226.44H641.35V75.65H667.94V134.2C680.97 117.62 696.92 114.41 714.74 118.96C729.89 122.7 740.26 133.67 741.33 149.17C742.66 170.02 742.13 190.88 742.39 211.73C741.86 216.54 741.86 221.36 741.86 226.7H741.87ZM819.78 118.15C786.81 112.27 760.22 130.45 755.43 162C750.38 195.69 769.25 224.3 799.83 228.04C835.99 232.59 856.46 213.34 858.59 195.42C854.6 194.35 850.61 193.28 846.63 192.21C842.37 191.14 838.12 190.07 834.13 189.27C828.55 204.51 813.92 206.92 802.49 204.51C793.71 202.91 782.81 193.82 782.81 180.18H860.72C866.31 150.24 848.22 123.23 819.77 118.15H819.78ZM808.88 138.21C821.91 138.74 830.95 147.03 831.75 159.6H783.36C785.49 146.23 795.86 137.68 808.89 138.21H808.88ZM434.76 226.7H463.74V102.64H508.14V77.51H390.08V102.91H434.75V226.7H434.76ZM913.05 127.24C925.01 156.92 936.71 186.59 948.68 216C950.54 220.55 950.81 224.56 948.68 229.37C943.9 241.13 939.37 253.17 934.59 266C942.57 266 949.22 265.73 956.13 266C961.18 266.27 963.31 264.4 965.17 259.85C982.19 215.47 999.2 170.82 1016.49 126.44C1017.29 124.3 1018.08 121.89 1018.88 118.95C1011.17 118.95 1004.26 119.22 997.34 118.95C992.82 118.68 990.42 120.02 988.83 124.83C982.18 142.74 975.27 160.39 968.35 178.3C967.29 180.97 966.23 183.38 964.9 187.12C956.65 165.2 949.21 144.61 941.24 124.29C940.44 122.42 938.58 119.48 936.98 119.48C928.21 118.95 919.43 119.21 909.86 119.21C911.19 122.42 912.25 124.82 913.05 127.23V127.24ZM620.62 203.98C609.19 206.92 602.01 201.84 600.94 190.08C600.41 182.59 600.67 175.11 600.67 167.35V141.68H627.26V118.69H600.67V87.68H573.28V118.96H555.46V141.95H573.54V150.77C573.54 165.74 573.27 180.45 573.81 195.42C574.34 209.86 580.99 220.82 595.08 226.17C604.92 229.65 615.02 229.65 625.13 226.97C626.72 226.7 628.85 224.56 628.85 223.49C628.58 216.54 627.79 209.59 626.99 201.83C624.07 202.63 622.47 203.43 620.61 203.97L620.62 203.98ZM875.82 226.7H902.15V75.37H875.82V226.7ZM519.32 226.7H545.38V119.22H519.32V226.7ZM515.33 86.6C515.6 96.23 522.77 103.18 532.35 103.18C541.93 103.18 549.37 96.23 549.37 86.6C549.64 76.71 542.19 69.76 532.08 69.76C521.97 69.76 515.06 76.98 515.33 86.6Z" fill="white"/>
</g>
<defs>
<clipPath id="clip0_1893_600">
<rect width="1019" height="290" fill="white"/>
</clipPath>
</defs>
</svg>
